<svg viewBox="0 0 256 256" xmlns="http://www.w3.org/2000/svg" role="img" aria-label="ClearCache">
  <defs>
    <radialGradient id="cc-bg" cx="32%" cy="28%" r="82%">
      <stop offset="0%" stop-color="#4a9cf1" />
      <stop offset="100%" stop-color="#0d5dc7" />
    </radialGradient>
  </defs>
  <circle cx="128" cy="128" r="122" fill="url(#cc-bg)" />
  <g transform="translate(26 26) scale(8.5)" fill="#ffffff">
    <path d="M 17.65 6.35 C 16.2 4.9 14.21 4 12 4 c -4.42 0 -7.99 3.58 -7.99 8 s 3.57 8 7.99 8 c 3.73 0 6.84 -2.55 7.73 -6 h -2.08 C 16.82 16.33 14.59 18 12 18 c -3.31 0 -6 -2.69 -6 -6 s 2.69 -6 6 -6 c 1.66 0 3.14 0.69 4.22 1.78 L 13 11 h 7 V 4 l -2.35 2.35 Z" />
  </g>
</svg>
